{
.appVersion = "895";
copyright = "Copyright 2016 Google Inc. All Rights Reserved.";
customParameters = (
{
name = description;
value = "Data unhinted. Designed by Monotype design team.";
},
{
name = license;
value = "This Font Software is licensed under the SIL Open Font License, Version 1.1. This Font Software is distributed on an \"AS IS\" BASIS, WITHOUT WARRANTIES OR CONDITIONS OF ANY KIND, either express or implied. See the SIL Open Font License for the specific language, permissions and limitations governing your use of this Font Software.";
},
{
name = licenseURL;
value = "http://scripts.sil.org/OFL";
},
{
name = vendorID;
value = GOOG;
},
{
name = panose;
value = (
2,
11,
5,
2,
4,
5,
4,
2,
2,
4
);
},
{
name = unicodeRanges;
value = (
84
);
},
{
name = codePageRanges;
value = (
1252
);
}
);
date = "2016-11-10 14:08:06 +0000";
designer = "Monotype Design Team";
designerURL = "http://www.monotype.com/studio";
familyName = "Noto Sans Buhid";
features = (
{
code = "sub uni1743 uni1752 by g26;\012sub uni1744 uni1753 by g27;\012sub uni1745 uni1752 by g28;\012sub uni1745 uni1753 by g29;\012sub uni1747 uni1752 by g30;\012sub uni1748 uni1753 by g31;\012sub uni1749 uni1753 by g32;\012sub uni174B uni1752 by g33;\012sub uni174C uni1753 by g34;\012sub uni174D uni1752 by g35;\012sub uni174D uni1753 by g36;\012sub uni174E uni1752 by g37;\012sub uni1750 uni1753 by g38;\012";
name = ccmp;
}
);
fontMaster = (
{
ascender = 2189;
capHeight = 1466;
customParameters = (
{
name = typoAscender;
value = 2189;
},
{
name = typoDescender;
value = -600;
},
{
name = typoLineGap;
value = 0;
},
{
name = winAscent;
value = 2189;
},
{
name = winDescent;
value = 600;
},
{
name = hheaAscender;
value = 2189;
},
{
name = hheaDescender;
value = -600;
}
);
descender = -600;
id = "79BFAF9C-79EF-48BF-89E2-7F1511608B07";
weightValue = 400;
widthValue = 5;
xHeight = 1026;
}
);
glyphs = (
{
glyphname = .notdef;
lastChange = "2016-11-10 14:07:50 +0000";
layers = (
{
layerId = "79BFAF9C-79EF-48BF-89E2-7F1511608B07";
paths = (
{
closed = 1;
nodes = (
"1034 0 LINE",
"1034 1462 LINE",
"193 1462 LINE",
"193 0 LINE"
);
},
{
closed = 1;
nodes = (
"297 1358 LINE",
"930 1358 LINE",
"930 104 LINE",
"297 104 LINE"
);
}
);
width = 1229;
}
);
note = .notdef;
},
{
glyphname = uni1740;
lastChange = "2016-11-10 14:07:47 +0000";
layers = (
{
layerId = "79BFAF9C-79EF-48BF-89E2-7F1511608B07";
paths = (
{
closed = 1;
nodes = (
"1018 0 LINE",
"1665 1462 LINE",
"1491 1462 LINE",
"907 139 LINE",
"485 139 LINE",
"709 1098 LINE",
"141 1098 LINE",
"109 958 LINE",
"514 958 LINE",
"293 0 LINE"
);
}
);
width = 1696;
}
);
note = uni1740;
unicode = 1740;
},
{
glyphname = uni1741;
lastChange = "2016-11-10 14:07:47 +0000";
layers = (
{
layerId = "79BFAF9C-79EF-48BF-89E2-7F1511608B07";
paths = (
{
closed = 1;
nodes = (
"1018 0 LINE",
"1665 1462 LINE",
"1491 1462 LINE",
"909 139 LINE",
"487 139 LINE",
"709 1098 LINE",
"141 1098 LINE",
"106 958 LINE",
"516 958 LINE",
"293 0 LINE"
);
},
{
closed = 1;
nodes = (
"932 -377 LINE",
"965 -238 LINE",
"238 -238 LINE",
"205 -377 LINE"
);
}
);
width = 1696;
}
);
note = uni1741;
unicode = 1741;
},
{
glyphname = uni1742;
lastChange = "2016-11-10 14:07:47 +0000";
layers = (
{
layerId = "79BFAF9C-79EF-48BF-89E2-7F1511608B07";
paths = (
{
closed = 1;
nodes = (
"932 0 LINE",
"1139 618 LINE",
"627 618 LINE",
"760 1098 LINE",
"141 1098 LINE",
"109 958 LINE",
"557 958 LINE",
"424 479 LINE",
"924 479 LINE",
"766 0 LINE"
);
}
);
width = 1280;
}
);
note = uni1742;
unicode = 1742;
},
{
glyphname = uni1743;
lastChange = "2016-11-10 14:07:47 +0000";
layers = (
{
layerId = "79BFAF9C-79EF-48BF-89E2-7F1511608B07";
paths = (
{
closed = 1;
nodes = (
"1057 958 LINE",
"1090 1098 LINE",
"367 1098 LINE",
"334 958 LINE"
);
},
{
closed = 1;
nodes = (
"838 0 LINE",
"870 139 LINE",
"145 139 LINE",
"113 0 LINE"
);
}
);
width = 1268;
}
);
note = uni1743;
unicode = 1743;
},
{
glyphname = uni1744;
lastChange = "2016-11-10 14:07:47 +0000";
layers = (
{
layerId = "79BFAF9C-79EF-48BF-89E2-7F1511608B07";
paths = (
{
closed = 1;
nodes = (
"795 0 LINE",
"948 659 LINE",
"385 659 LINE",
"502 1163 LINE",
"338 1163 LINE",
"190 520 LINE",
"754 520 LINE",
"635 0 LINE"
);
}
);
width = 1227;
}
);
note = uni1744;
unicode = 1744;
},
{
glyphname = uni1745;
lastChange = "2016-11-10 13:44:54 +0000";
layers = (
{
layerId = "79BFAF9C-79EF-48BF-89E2-7F1511608B07";
paths = (
{
closed = 1;
nodes = (
"838 0 LINE",
"954 512 LINE",
"1513 512 LINE",
"1544 651 LINE",
"987 651 LINE",
"1106 1163 LINE",
"381 1163 LINE",
"348 1024 LINE",
"905 1024 LINE",
"702 139 LINE",
"145 139 LINE",
"113 0 LINE"
);
}
);
width = 1649;
}
);
note = uni1745;
unicode = 1745;
},
{
glyphname = uni1746;
lastChange = "2016-11-10 14:07:47 +0000";
layers = (
{
layerId = "79BFAF9C-79EF-48BF-89E2-7F1511608B07";
paths = (
{
closed = 1;
nodes = (
"659 0 LINE",
"887 520 LINE",
"1120 520 LINE",
"1032 0 LINE",
"1575 0 LINE",
"2054 1098 LINE",
"1880 1098 LINE",
"1464 139 LINE",
"1212 139 LINE",
"1300 659 LINE",
"776 659 LINE",
"549 139 LINE",
"295 139 LINE",
"518 1098 LINE",
"356 1098 LINE",
"102 0 LINE"
);
}
);
width = 2099;
}
);
note = uni1746;
unicode = 1746;
},
{
glyphname = uni1747;
lastChange = "2016-11-10 14:07:47 +0000";
layers = (
{
layerId = "79BFAF9C-79EF-48BF-89E2-7F1511608B07";
paths = (
{
closed = 1;
nodes = (
"1018 0 LINE",
"1665 1462 LINE",
"1491 1462 LINE",
"909 139 LINE",
"485 139 LINE",
"793 1462 LINE",
"631 1462 LINE",
"492 856 LINE",
"41 856 LINE",
"6 717 LINE",
"457 717 LINE",
"293 0 LINE"
);
}
);
width = 1673;
}
);
note = uni1747;
unicode = 1747;
},
{
glyphname = uni1748;
lastChange = "2016-11-10 14:07:47 +0000";
layers = (
{
layerId = "79BFAF9C-79EF-48BF-89E2-7F1511608B07";
paths = (
{
closed = 1;
nodes = (
"375 0 LINE",
"682 1323 LINE",
"983 1323 LINE",
"1016 1462 LINE",
"211 1462 LINE",
"178 1323 LINE",
"520 1323 LINE",
"215 0 LINE"
);
}
);
width = 897;
}
);
note = uni1748;
unicode = 1748;
},
{
glyphname = uni1749;
lastChange = "2016-11-10 14:07:47 +0000";
layers = (
{
layerId = "79BFAF9C-79EF-48BF-89E2-7F1511608B07";
paths = (
{
closed = 1;
nodes = (
"1010 0 LINE",
"1343 958 LINE",
"1757 958 LINE",
"1790 1098 LINE",
"1223 1098 LINE",
"893 139 LINE",
"518 139 LINE",
"741 1098 LINE",
"174 1098 LINE",
"141 958 LINE",
"547 958 LINE",
"326 0 LINE"
);
}
);
width = 1696;
}
);
note = uni1749;
unicode = 1749;
},
{
glyphname = uni174A;
lastChange = "2016-11-10 13:44:54 +0000";
layers = (
{
layerId = "79BFAF9C-79EF-48BF-89E2-7F1511608B07";
paths = (
{
closed = 1;
nodes = (
"838 0 LINE",
"1106 1163 LINE",
"381 1163 LINE",
"348 1024 LINE",
"905 1024 LINE",
"702 139 LINE",
"145 139 LINE",
"113 0 LINE"
);
}
);
width = 1268;
}
);
note = uni174A;
unicode = 174A;
},
{
glyphname = uni174B;
lastChange = "2016-11-10 14:07:47 +0000";
layers = (
{
layerId = "79BFAF9C-79EF-48BF-89E2-7F1511608B07";
paths = (
{
closed = 1;
nodes = (
"991 0 LINE",
"1501 1462 LINE",
"1331 1462 LINE",
"1202 1090 LINE",
"514 1090 LINE",
"532 1163 LINE",
"371 1163 LINE",
"102 0 LINE"
);
},
{
closed = 1;
nodes = (
"483 950 LINE",
"1153 950 LINE",
"874 139 LINE",
"295 139 LINE"
);
}
);
width = 1503;
}
);
note = uni174B;
unicode = 174B;
},
{
glyphname = uni174C;
lastChange = "2016-11-10 14:07:47 +0000";
layers = (
{
layerId = "79BFAF9C-79EF-48BF-89E2-7F1511608B07";
paths = (
{
closed = 1;
nodes = (
"838 0 LINE",
"1171 958 LINE",
"1434 958 LINE",
"1212 0 LINE",
"1374 0 LINE",
"1628 1098 LINE",
"1051 1098 LINE",
"721 139 LINE",
"436 139 LINE",
"659 1098 LINE",
"174 1098 LINE",
"141 958 LINE",
"465 958 LINE",
"244 0 LINE"
);
}
);
width = 1804;
}
);
note = uni174C;
unicode = 174C;
},
{
glyphname = uni174D;
lastChange = "2016-11-10 13:44:54 +0000";
layers = (
{
layerId = "79BFAF9C-79EF-48BF-89E2-7F1511608B07";
paths = (
{
closed = 1;
nodes = (
"1104 604 LINE",
"1137 743 LINE",
"172 743 LINE",
"139 604 LINE"
);
}
);
width = 1255;
}
);
note = uni174D;
unicode = 174D;
},
{
glyphname = uni174E;
lastChange = "2016-11-10 14:07:47 +0000";
layers = (
{
layerId = "79BFAF9C-79EF-48BF-89E2-7F1511608B07";
paths = (
{
closed = 1;
nodes = (
"563 -512 LINE",
"739 0 LINE",
"1268 0 LINE",
"1749 1180 LINE",
"983 1180 LINE",
"625 139 LINE",
"297 139 LINE",
"453 815 LINE",
"291 815 LINE",
"102 0 LINE",
"575 0 LINE",
"399 -512 LINE"
);
},
{
closed = 1;
nodes = (
"1102 1040 LINE",
"1522 1040 LINE",
"1157 139 LINE",
"788 139 LINE"
);
}
);
width = 1776;
}
);
note = uni174E;
unicode = 174E;
},
{
glyphname = uni174F;
lastChange = "2016-11-10 14:07:47 +0000";
layers = (
{
layerId = "79BFAF9C-79EF-48BF-89E2-7F1511608B07";
paths = (
{
closed = 1;
nodes = (
"1206 0 LINE",
"1554 852 LINE",
"831 852 LINE",
"672 358 LINE",
"836 358 LINE",
"952 713 LINE",
"1327 713 LINE",
"1096 139 LINE",
"295 139 LINE",
"518 1098 LINE",
"356 1098 LINE",
"102 0 LINE"
);
}
);
width = 1673;
}
);
note = uni174F;
unicode = 174F;
},
{
glyphname = uni1750;
lastChange = "2016-11-10 14:07:47 +0000";
layers = (
{
layerId = "79BFAF9C-79EF-48BF-89E2-7F1511608B07";
paths = (
{
closed = 1;
nodes = (
"1237 -115 LINE",
"1444 504 LINE",
"954 504 LINE",
"1114 983 LINE",
"621 983 LINE",
"782 1462 LINE",
"182 1462 LINE",
"150 1323 LINE",
"567 1323 LINE",
"410 844 LINE",
"901 844 LINE",
"741 365 LINE",
"1229 365 LINE",
"1071 -115 LINE"
);
}
);
width = 1552;
}
);
note = uni1750;
unicode = 1750;
},
{
glyphname = uni1751;
lastChange = "2016-11-10 14:07:47 +0000";
layers = (
{
layerId = "79BFAF9C-79EF-48BF-89E2-7F1511608B07";
paths = (
{
closed = 1;
nodes = (
"899 0 LINE",
"932 139 LINE",
"295 139 LINE",
"518 1098 LINE",
"356 1098 LINE",
"102 0 LINE"
);
}
);
width = 1176;
}
);
note = uni1751;
unicode = 1751;
},
{
glyphname = uni1752;
lastChange = "2016-11-10 13:44:54 +0000";
layers = (
{
layerId = "79BFAF9C-79EF-48BF-89E2-7F1511608B07";
paths = (
{
closed = 1;
nodes = (
"-2 1327 LINE",
"31 1466 LINE",
"-696 1466 LINE",
"-729 1327 LINE"
);
}
);
width = 0;
}
);
note = uni1752;
unicode = 1752;
},
{
glyphname = uni1753;
lastChange = "2016-11-10 13:44:54 +0000";
layers = (
{
layerId = "79BFAF9C-79EF-48BF-89E2-7F1511608B07";
paths = (
{
closed = 1;
nodes = (
"-406 -377 LINE",
"-373 -238 LINE",
"-1100 -238 LINE",
"-1133 -377 LINE"
);
}
);
width = 0;
}
);
note = uni1753;
unicode = 1753;
},
{
glyphname = uni1735;
lastChange = "2016-11-10 14:07:47 +0000";
layers = (
{
layerId = "79BFAF9C-79EF-48BF-89E2-7F1511608B07";
paths = (
{
closed = 1;
nodes = (
"178 -285 LINE",
"598 1536 LINE",
"455 1536 LINE",
"37 -285 LINE"
);
}
);
width = 674;
}
);
note = uni1735;
unicode = 1735;
},
{
glyphname = g26;
lastChange = "2016-11-10 14:07:50 +0000";
layers = (
{
layerId = "79BFAF9C-79EF-48BF-89E2-7F1511608B07";
paths = (
{
closed = 1;
nodes = (
"570 30 LINE",
"684 521 LINE",
"1049 521 LINE",
"1082 660 LINE",
"716 660 LINE",
"814 1083 LINE",
"655 1083 LINE",
"557 660 LINE",
"177 660 LINE",
"144 521 LINE",
"525 521 LINE",
"411 30 LINE"
);
}
);
width = 1268;
}
);
note = g26;
},
{
glyphname = g27;
lastChange = "2016-11-10 14:07:50 +0000";
layers = (
{
layerId = "79BFAF9C-79EF-48BF-89E2-7F1511608B07";
paths = (
{
closed = 1;
nodes = (
"795 0 LINE",
"862 291 LINE",
"1242 291 LINE",
"1275 430 LINE",
"895 430 LINE",
"948 659 LINE",
"385 659 LINE",
"502 1163 LINE",
"338 1163 LINE",
"190 520 LINE",
"754 520 LINE",
"635 0 LINE"
);
}
);
width = 1375;
}
);
note = g27;
},
{
glyphname = g28;
lastChange = "2016-11-10 14:07:50 +0000";
layers = (
{
layerId = "79BFAF9C-79EF-48BF-89E2-7F1511608B07";
paths = (
{
closed = 1;
nodes = (
"838 0 LINE",
"954 512 LINE",
"1513 512 LINE",
"1544 651 LINE",
"987 651 LINE",
"1106 1163 LINE",
"381 1163 LINE",
"348 1024 LINE",
"905 1024 LINE",
"702 139 LINE",
"145 139 LINE",
"113 0 LINE"
);
},
{
closed = 1;
nodes = (
"1564 758 LINE",
"1597 897 LINE",
"1161 897 LINE",
"1128 758 LINE"
);
}
);
width = 1692;
}
);
note = g28;
},
{
glyphname = g29;
lastChange = "2016-11-10 14:07:50 +0000";
layers = (
{
layerId = "79BFAF9C-79EF-48BF-89E2-7F1511608B07";
paths = (
{
closed = 1;
nodes = (
"838 0 LINE",
"954 512 LINE",
"1513 512 LINE",
"1544 651 LINE",
"987 651 LINE",
"1106 1163 LINE",
"381 1163 LINE",
"348 1024 LINE",
"905 1024 LINE",
"702 139 LINE",
"145 139 LINE",
"113 0 LINE"
);
},
{
closed = 1;
nodes = (
"1447 246 LINE",
"1480 385 LINE",
"1044 385 LINE",
"1011 246 LINE"
);
}
);
width = 1649;
}
);
note = g29;
},
{
glyphname = g30;
lastChange = "2016-11-10 14:07:50 +0000";
layers = (
{
layerId = "79BFAF9C-79EF-48BF-89E2-7F1511608B07";
paths = (
{
closed = 1;
nodes = (
"1018 0 LINE",
"1665 1462 LINE",
"1031 1462 LINE",
"996 1323 LINE",
"1430 1323 LINE",
"909 139 LINE",
"485 139 LINE",
"793 1462 LINE",
"180 1462 LINE",
"145 1323 LINE",
"596 1323 LINE",
"293 0 LINE"
);
}
);
width = 1673;
}
);
note = g30;
},
{
glyphname = g31;
lastChange = "2016-11-10 14:07:50 +0000";
layers = (
{
layerId = "79BFAF9C-79EF-48BF-89E2-7F1511608B07";
paths = (
{
closed = 1;
nodes = (
"772 0 LINE",
"925 659 LINE",
"528 659 LINE",
"682 1323 LINE",
"983 1323 LINE",
"1016 1462 LINE",
"211 1462 LINE",
"178 1323 LINE",
"520 1323 LINE",
"336 520 LINE",
"731 520 LINE",
"612 0 LINE"
);
}
);
width = 1056;
}
);
note = g31;
},
{
glyphname = g32;
lastChange = "2016-11-10 14:07:50 +0000";
layers = (
{
layerId = "79BFAF9C-79EF-48BF-89E2-7F1511608B07";
paths = (
{
closed = 1;
nodes = (
"1010 0 LINE",
"1168 455 LINE",
"1579 455 LINE",
"1612 594 LINE",
"1216 594 LINE",
"1343 958 LINE",
"1757 958 LINE",
"1790 1098 LINE",
"1223 1098 LINE",
"893 139 LINE",
"518 139 LINE",
"741 1098 LINE",
"174 1098 LINE",
"141 958 LINE",
"547 958 LINE",
"326 0 LINE"
);
}
);
width = 1696;
}
);
note = g32;
},
{
glyphname = g33;
lastChange = "2016-11-10 14:07:50 +0000";
layers = (
{
layerId = "79BFAF9C-79EF-48BF-89E2-7F1511608B07";
paths = (
{
closed = 1;
nodes = (
"991 0 LINE",
"1452 1322 LINE",
"1861 1322 LINE",
"1894 1462 LINE",
"1331 1462 LINE",
"1202 1090 LINE",
"514 1090 LINE",
"532 1163 LINE",
"371 1163 LINE",
"102 0 LINE"
);
},
{
closed = 1;
nodes = (
"483 950 LINE",
"1153 950 LINE",
"874 139 LINE",
"295 139 LINE"
);
}
);
width = 1804;
}
);
note = g33;
},
{
glyphname = g34;
lastChange = "2016-11-10 14:07:50 +0000";
layers = (
{
layerId = "79BFAF9C-79EF-48BF-89E2-7F1511608B07";
paths = (
{
closed = 1;
nodes = (
"838 0 LINE",
"1171 958 LINE",
"1434 958 LINE",
"1212 0 LINE",
"1772 0 LINE",
"1805 139 LINE",
"1406 139 LINE",
"1628 1098 LINE",
"1051 1098 LINE",
"721 139 LINE",
"436 139 LINE",
"659 1098 LINE",
"174 1098 LINE",
"141 958 LINE",
"465 958 LINE",
"244 0 LINE"
);
}
);
width = 1985;
}
);
note = g34;
},
{
glyphname = g35;
lastChange = "2016-11-10 14:07:50 +0000";
layers = (
{
layerId = "79BFAF9C-79EF-48BF-89E2-7F1511608B07";
paths = (
{
closed = 1;
nodes = (
"554 0 LINE",
"675 521 LINE",
"1086 521 LINE",
"1119 660 LINE",
"707 660 LINE",
"792 1024 LINE",
"1151 1024 LINE",
"1184 1163 LINE",
"665 1163 LINE",
"548 660 LINE",
"154 660 LINE",
"121 521 LINE",
"516 521 LINE",
"395 0 LINE"
);
}
);
width = 1255;
}
);
note = g35;
},
{
glyphname = g36;
lastChange = "2016-11-10 14:07:50 +0000";
layers = (
{
layerId = "79BFAF9C-79EF-48BF-89E2-7F1511608B07";
paths = (
{
closed = 1;
nodes = (
"943 0 LINE",
"976 139 LINE",
"586 139 LINE",
"675 521 LINE",
"1086 521 LINE",
"1119 660 LINE",
"707 660 LINE",
"824 1163 LINE",
"665 1163 LINE",
"548 660 LINE",
"154 660 LINE",
"121 521 LINE",
"516 521 LINE",
"395 0 LINE"
);
}
);
width = 1255;
}
);
note = g36;
},
{
glyphname = g37;
lastChange = "2016-11-10 14:07:50 +0000";
layers = (
{
layerId = "79BFAF9C-79EF-48BF-89E2-7F1511608B07";
paths = (
{
closed = 1;
nodes = (
"563 -512 LINE",
"739 0 LINE",
"1268 0 LINE",
"1749 1180 LINE",
"983 1180 LINE",
"625 139 LINE",
"297 139 LINE",
"576 1327 LINE",
"1139 1327 LINE",
"1172 1466 LINE",
"445 1466 LINE",
"102 0 LINE",
"575 0 LINE",
"399 -512 LINE"
);
},
{
closed = 1;
nodes = (
"1102 1040 LINE",
"1522 1040 LINE",
"1157 139 LINE",
"788 139 LINE"
);
}
);
width = 1776;
}
);
note = g37;
},
{
glyphname = g38;
lastChange = "2016-11-10 14:07:50 +0000";
layers = (
{
layerId = "79BFAF9C-79EF-48BF-89E2-7F1511608B07";
paths = (
{
closed = 1;
nodes = (
"1237 -115 LINE",
"1444 504 LINE",
"954 504 LINE",
"1114 983 LINE",
"621 983 LINE",
"782 1462 LINE",
"182 1462 LINE",
"150 1323 LINE",
"567 1323 LINE",
"410 844 LINE",
"901 844 LINE",
"741 365 LINE",
"1229 365 LINE",
"1071 -115 LINE"
);
},
{
closed = 1;
nodes = (
"1171 1139 LINE",
"1204 1278 LINE",
"808 1278 LINE",
"765 1139 LINE"
);
}
